<svg version="1.1" id="Layer_1" xmlns="http://www.w3.org/2000/svg" x="0" y="0" viewBox="0 0 32 32" xml:space="preserve"><path d="M20.2 25.9l.8-1.4s-1.9.8-5.1.8c-3.2 0-5.1-.8-5.1-.8l.9 1.6.3 5c0 .5 1.7 1 3.9 1s3.9-.4 3.9-1l.4-5.2zm.8-9.4c-1 .1-1.5 1.2-2.1 2.4-.2.4-.8 2.3-1.3 2.1-.4-.2.5-1.8.8-2.7-.3.2-1.5 1.1-1.8.3-.5.4-1.5.6-1.4-.4-.3.5-.8 1.1-1.5.8-.9-.3.5-3.2.9-3.1.4.2-.1.8-.2 1.1-.3.6-.5 1.3-.3 1.4.3.3 1.2-.9 1.2-1 .2-.2.6-1.6 1-1.5.4.2-.9 2.1-.5 2.4.1.1.5 0 .8-.3.2-.2.1-.6.6-1.8.5-1.3 1-2.9 1.4-2.8.4.1.1.9-.1 1.3-.6 1.4-1.7 3.8-1.2 3.6.5-.2.8-.2 1.3-.8.5-.6.5-1.5.8-1.5.3 0 .3.3.2.6.3-.4 1.5-1.2 1.8-.4.3.9-1.7 2.3-1.2 2.2.5-.1 1.3-.6 1.7-1.1l1-8.7s-1 .8-7.2.8-7-.8-7-.8l.8 7.9c.4-1.2 1.5-3.8 3.1-3.7.7 0 1.7 1.5.9 1.5-.4 0-.4-.7-.8-.8-.3-.1-.7.2-1 .5-.5.5-1.7 2.7-1.6 3.7.2 1.4 1.9-.5 2.2-1 .2-.4.3-1.5.8-1.4.4.1 0 1.3-.4 2.3-.4 1.2-.5 2.4-1 2.2-.4-.1.3-1.6.2-1.9-.4.4-1.2 1.4-2.2.9l.5 4.9s1.4 1.1 5.4 1.1 5.5-1.1 5.5-1.1l.6-5.7c-.5.5-2.2 1.4-2.3.4.2-.6 2-1.8 1.6-1.9zM23.1.9l-3.5 3.7-.7 2.5c2.5.2 4.3.5 4.3.9 0 .6-3.2 1-7.2 1s-7.2-.5-7.2-1c0-.6 3.2-1 7.2-1h1.7l.7-3 3.8-4c.1-.1.4 0 .6.2.3.3.4.5.3.7zM18 8.6s-.7 0-.8-.1v-.1c0-.1.1-.1.1-.1l.1.1c0 .1.4.1.7.1.3 0 .7 0 .7-.1h-.1l.1-.1c.1 0 .2.1.2.2s-.2.2-.3.2c-.3-.1-.7-.1-.7-.1z" fill="#d5d5d5" data-original="#000000"/></svg>