<svg xmlns="http://www.w3.org/2000/svg" width="512" height="512" viewBox="0 0 511 512"><path xmlns="http://www.w3.org/2000/svg" d="M386.406 0H113.023a15.501 15.501 0 00-10.964 4.543L5.043 101.559A15.495 15.495 0 00.5 112.523v383.97C.5 505.058 7.441 512 16.008 512h370.398c8.563 0 15.508-6.941 15.508-15.508V15.508C401.914 6.94 394.97 0 386.406 0zM97.516 52.945v44.07h-44.07zm273.382 428.04H31.516V128.03h81.507c8.563 0 15.508-6.945 15.508-15.508V31.016h242.367zm0 0" fill="#d5d5d5" data-original="#000000"/><path xmlns="http://www.w3.org/2000/svg" d="M118.352 166.227c-8.563 0-15.508 6.945-15.508 15.507 0 8.567 6.945 15.508 15.508 15.508h165.71c8.563 0 15.508-6.941 15.508-15.508 0-8.562-6.945-15.507-15.507-15.507zm165.711 57.808H118.351c-8.563 0-15.508 6.945-15.508 15.508 0 8.566 6.945 15.508 15.508 15.508h165.71c8.563 0 15.508-6.942 15.508-15.508 0-8.563-6.945-15.508-15.507-15.508zm0 57.813H118.351c-8.563 0-15.508 6.941-15.508 15.504 0 8.566 6.945 15.507 15.508 15.507h165.71c8.563 0 15.508-6.941 15.508-15.507 0-8.563-6.945-15.504-15.507-15.504zm-40.836 57.808H118.352c-8.563 0-15.508 6.942-15.508 15.508 0 8.563 6.945 15.504 15.508 15.504h124.875c8.562 0 15.507-6.941 15.507-15.504 0-8.566-6.945-15.508-15.507-15.508zm0 0" fill="#d5d5d5" data-original="#000000"/></svg>