<svg version="1.1" id="Layer_1" xmlns="http://www.w3.org/2000/svg" x="0" y="0" viewBox="0 0 512 512" xml:space="preserve"><path d="M327.9 374.7l-12.4 21.6-4 70.5c0 7.8-24.9 14.2-55.5 14.2s-55.5-6.3-55.5-14.2l-5.1-69.8-13.1-22.3c36.3 15.2 110.8 14.7 145.6 0zM155.6 152.1l12 110.3c5.2-17.6 18.3-41.3 35.2-48.5 5.5-2.4 11.2-2.4 16.4.8 4.6 2.6 8.4 8.2 8.9 10.4 1.1 5.7-1.8 8-4 8-2.6 0-4.7-4-6-6.4-3.6-6.4-9.1-6.7-14.9-2.5-6.1 4.4-11.3 11.8-15 18.2-4.5 7.7-8.3 16.3-10.5 24.8-1.3 4.9-2.5 12.8-.5 17.5.9 1.9 2.2 3.2 4.3 3.2 4.4 0 10.8-5.8 13.9-8.9 4-4 9.1-10.1 11-14.1l4.6-13.6c2.3-6 8.7-4.9 8.7 0 0 9-3.3 12-8.8 30.5-5.1 17.1-6.7 22.7-6.7 22.7-.6 2.5-3 6.6-5.5 6.6-1.1 0-1.8-.4-2.3-1.1-.9-1.2-.8-4.7-.7-5.5.2-2.8 5.5-19.5 6.4-22.1-1.8 1.9-3.6 3.9-5.6 5.8-4.7 4.5-12.4 10.4-18.9 10.4-3 0-4.9-.8-6.8-2.1l6.7 70c1.8 4.4 34.5 15 77.5 15 43.2 0 75.9-10.7 77.5-15l9.6-83.1c-5 4.6-10.8 10.2-17.2 13-4.7 2-15.3 3.3-15.3-5 0-4.6 8-13 12.7-18.9 1.2-1.5 4.1-5.2 4.1-7.1 0-2.5-5.3-1.9-10.3 2.2-2.8 2.4-5.4 5.5-7.6 8.5-3.8 5.3-5.8 9.8-7.5 13.6-5.4 12.5-3.6 7.6-8 19.3-4.4 11.7-3.7 10.4-4.6 12.3-.8 1.7-1.9 3.1-3.5 4-1.7.9-4 .8-5.4-.3-.8-.5-1.1-1.7-1.1-3.3 0-.8.1-1.6.3-2.4 1.3-5.4 6.9-15.9 13.2-30.1 1.4-3.3.9-2.3.7-2-5.4 5.3-9.6 7.8-12.7 9.2-5.1 2.3-11.4 2.3-12.7-3.6-.1-.4-.1-.7-.2-1.1-10.4 8.1-21.4 10.3-17.6-7.1-4 7.2-11.1 13.1-19.7 13.1-3.6 0-6.2-1.2-7.6-4.5-2-4.8 1.1-13.1 4-20.9 1.5-4 3.5-8.7 6.2-14.2 1.4-3 3.7-4.7 6.7-4 .5.2 1 .4 1.4.6 2.3 1.6 1.4 4 .3 6.3-3.3 6.6-6.2 11.4-8.2 18.3-.8 2.9-1.8 7.9 1.3 7.9 2.1 0 4.1-.7 6.1-2.1 4-3 7.3-7.5 9.8-11.9 1.8-3.2 3.9-7.3 4.9-10.8.4-1.5 1-2.9 1.6-4.2 1-2.2 2.3-4.5 4.6-4.5 1.1 0 2.1.4 2.8 1.3 1.5 1.9 1.1 4 .4 6.1-1.8 4.9-4.1 9.3-6.1 14.7-1.1 3.1-2.4 7-2.4 10.3 0 3 3.3 2.3 6 1.1 2.1-1 4.2-2.5 6-4 1.1-4.3.8-3.3 23.2-59.9 1.1-2.9 3.3-4.1 5.4-4.1 1.1 0 1.9.4 2.8 1 1.5 1.1 1.5 3.6.9 5.4-.6 1.7-.5 1.1-4 9.2-4.6 10.6-7.6 18.3-11.6 28-1.7 4-6.8 16.6-7.6 19.6-.5 1.9-1.1 5.1.9 5.1 4.7 0 17-11.5 20.3-14.9.2-.3.4-.4.8-.5.5-1.7 1.1-3.3 1.5-4.8 1.2-3.3 2.4-7.2 4.7-9.9.7-.9 1.5-1.4 2.4-1.4 2.5 0 3.7 1.1 3.7 3.5 0 1-.6 4.5-1 5.4 1.2-1.3 2.5-2.6 4-4 13.2-12.2 22.6-6 22.6.2 0 6.5-7.8 15.6-12.1 20.6-1.4 1.7-4.3 4.7-4.4 5.6 0 1.1.8 1.6 1.9 1.6 1.8 0 5.6-3.1 7-4.1 4.4-3.4 10.4-8.7 14.6-12.4l13-120.2c-27 14.7-173.9 14.8-200.9-.1zm201.9-7.5c0 18.5-203.2 18.5-203.2 0 0-7.7 45.5-14 101.6-14 7.9 0 15.6.1 23.1.4l11.1-42.8L344 31.5c1.2-1.2 5.1-.2 8.7 3.1 3.6 3.3 5.8 6.9 4.7 8.2l-.1.1L306.9 96l-8.8 35.8c35.1 2.3 59.4 7.1 59.4 12.8zm-61 4.1c0-.7-.8-1.3-2.2-1.8l-.2.7c0 1.1-4.4 2.1-9.8 2.1s-9.8-1-9.8-2.1c0-.1 0-.2.1-.3l.2-.6c-1.6.5-2.6 1.2-2.6 2 0 1.8 5.4 3.3 12 3.3 6.9 0 12.3-1.5 12.3-3.3z" fill="#d5d5d5" data-original="#000000"/></svg>