<svg xmlns="http://www.w3.org/2000/svg"><symbol viewBox="0 0 512 512" id="git"><path d="M256 0C115.3 0 0 116.3 0 257c0 139.883 114.25 255 256 255 141.574 0 256-114.945 256-255C512 116.3 396.7 0 256 0zm45 477.5c-14.398 3-29.7 4.5-45 4.5s-30.602-1.5-45-4.5v-70.2c0-16.8 4.5-22.8 10.5-30.902 3.055-3.492 4.898-6.625 18.598-27.296L217 345.5c-59.402-8.7-82.8-39.602-92.102-63.602-12-32.097-5.699-72.3 15.903-97.796 3.3-3.903 6-10.504 3.601-17.403-4.504-13.8-3.902-35.699-.902-44.101 15.906 2.273 32.262 13.668 45.902 21.902 6.286 3.668 9.582 2.7 12.598 3 10.96-2.281 28.059-7.8 54.3-7.8 16.2 0 33.302 2.398 50.102 7.198 3.004-.07 7.832 2.485 16.2-2.398 14.257-8.687 30.058-19.691 45.898-21.902 3 8.402 3.602 30.3-.898 44.101-2.403 6.899.296 13.5 3.601 17.403 21.598 25.5 27.899 65.699 15.899 97.796-9.301 24-32.7 54.903-92.102 63.602l-23.098 3.602c14.16 21.367 15.653 23.93 18.602 27.296C296.5 384.5 301 390.5 301 407.301zm30-8.7v-61.5c0-17.1-3.602-28.5-8.402-36.902 45.601-12.296 78.004-39.3 92.402-78 15.3-40.796 8.402-89.398-17.102-123 4.504-20.097 4.504-52.199-6.296-67.199C386.8 95.602 380.199 92 371.8 92h-.301c-23.262 1.258-41.57 12.973-61.2 24.898-18-4.8-36.3-7.199-54.6-7.199-18.598 0-37.2 2.7-53.696 7.2C181.34 104.437 163.207 93.226 139.3 92c-7.5 0-14.102 3.602-18.903 10.2-10.796 15-10.796 47.1-6.296 67.198-25.504 33.602-32.403 82.5-17.102 123 14.398 38.7 46.8 65.704 92.402 78-3.722 6.512-6.668 14.915-7.828 26.286-9.21 3.175-17.199 4.21-24.629 2.027-7.836-2.316-13.941-7.547-19.246-16.469-11.914-20.015-32.207-36.355-55.312-34.23l2.636 29.883c10.7-.98 21.348 10.34 26.88 19.671 9.124 15.368 21.417 25.446 36.546 29.914 11.23 3.31 21.496 3.23 32.551.872V468.8C93.7 438.199 30 354.8 30 257 30 132.8 131.8 30 256 30s226 102.8 226 227c0 97.8-63.7 181.2-151 211.8zm0 0" fill="#d5d5d5"/></symbol><symbol viewBox="-25 0 445 445.6" id="react"><path d="M385.082 102.8c-16.602-26-52.3-36.8-100.402-30.6-1.7.198-3.5.5-5.2.698-.699-1.597-1.398-3.199-2.199-4.796C256.582 24.199 228.281 0 197.481 0s-59.2 24.2-79.801 68.102c-.7 1.597-1.5 3.199-2.2 4.796-1.8-.296-3.5-.5-5.199-.699-48.199-6.3-83.8 4.602-100.402 30.602-16.598 26-11.5 62.898 14.3 103.898a232.032 232.032 0 0011.102 16.102c-4 5.398-7.699 10.699-11.101 16.097-25.801 41-30.899 78-14.301 103.903 13.5 21.199 39.703 32.3 75 32.3 8.46-.046 16.91-.613 25.3-1.703 1.7-.199 3.5-.5 5.2-.699.703 1.602 1.402 3.2 2.203 4.801 20.7 43.898 49 68.102 79.797 68.102 30.8 0 59.203-24.204 79.8-68.102.7-1.602 1.5-3.2 2.2-4.8 1.8.3 3.5.5 5.203.698a188.276 188.276 0 0025.297 1.704c35.3 0 61.5-11.102 75-32.301 16.601-26 11.5-62.903-14.297-103.903a232.906 232.906 0 00-11.102-16.097c4-5.403 7.7-10.7 11.102-16.102 26.098-41.097 31.2-78 14.5-103.898zm-249.3-26.198C152.68 40.602 175.18 20 197.48 20s44.801 20.602 61.7 56.602a.362.362 0 00.101.199 354.345 354.345 0 00-61.902 21.097 346.07 346.07 0 00-61.899-21.097c.2 0 .2-.102.301-.2zm151.8 146.199c.004 16-.863 31.992-2.602 47.898a426.539 426.539 0 01-39 28 425.524 425.524 0 01-48.601 26.903 451.17 451.17 0 01-48.598-26.903 440.268 440.268 0 01-39-28 442.276 442.276 0 010-95.8A442.405 442.405 0 01197.38 120a450.522 450.522 0 0148.601 26.898 440.268 440.268 0 0139 28 440.02 440.02 0 012.602 47.903zm19.098-29.102a323.767 323.767 0 0127.601 29.102 324.247 324.247 0 01-27.601 29.097c.601-9.597.902-19.296.902-29.097s-.3-19.5-.902-29.102zm-25.801 105.403a319.536 319.536 0 01-13.7 50.898 315.042 315.042 0 01-45.597-14 509.73 509.73 0 0035.297-20.398 506.84 506.84 0 0024-16.5zM173.379 336a295.562 295.562 0 01-45.598 14 319.536 319.536 0 01-13.699-50.898c7.7 5.699 15.7 11.199 24 16.398 11.7 7.5 23.5 14.3 35.297 20.5zM88.28 251.898a324.801 324.801 0 01-27.601-29.097 324.32 324.32 0 0127.601-29.102c-.601 9.602-.902 19.301-.902 29.102s.3 19.5.902 29.097zM114.082 146.5a319.313 319.313 0 0113.7-50.898 313.923 313.923 0 0145.597 14A509.73 509.73 0 00138.082 130a506.384 506.384 0 00-24 16.5zm142.7-16.5c-11.602-7.398-23.403-14.3-35.302-20.398a295.477 295.477 0 0145.602-14 320.142 320.142 0 0113.7 50.898c-7.7-5.7-15.7-11.2-24-16.5zm-215.7 66c-21.203-33.602-26.402-63.7-14.402-82.5 9.601-15 30.402-23.102 58.5-23.102 7.523.032 15.039.536 22.5 1.5h.199a359.898 359.898 0 00-16.797 72.5A372.95 372.95 0 0048.18 206.5c-2.5-3.398-4.899-6.898-7.098-10.5zm66.5 157.602a180.576 180.576 0 01-22.5 1.5c-28.102 0-48.902-8-58.5-23.102-12-18.8-6.8-48.898 14.398-82.5 2.2-3.5 4.602-7.102 7.102-10.602A372.282 372.282 0 0090.98 281a360.049 360.049 0 0016.801 72.5c0 .102-.101.102-.199.102zM259.18 369c-16.899 36-39.399 56.602-61.7 56.602S152.68 405 135.781 369a.362.362 0 00-.101-.2 354.036 354.036 0 0061.902-21.1 345.774 345.774 0 0061.898 21.1c-.199 0-.199.098-.3.2zm94.699-119.398c21.203 33.597 26.402 63.699 14.402 82.5-12 18.796-41.5 26.699-80.902 21.5h-.2a359.907 359.907 0 0016.801-72.5A372.601 372.601 0 00346.88 239c2.402 3.5 4.8 7 7 10.602zm-50-85.102A359.776 359.776 0 00287.082 92h.2c39.398-5.102 68.898 2.7 80.898 21.5s6.8 48.898-14.399 82.5a217.052 217.052 0 01-7.101 10.602 363.394 363.394 0 00-42.801-42.102zm0 0" fill="#d5d5d5"/><path d="M197.48 183.2c-21.87 0-39.601 17.73-39.601 39.6 0 21.872 17.73 39.598 39.601 39.598 21.872 0 39.602-17.726 39.602-39.597-.016-21.867-17.738-39.586-39.602-39.602zm0 59.198c-10.824 0-19.601-8.773-19.601-19.597s8.777-19.602 19.601-19.602 19.602 8.778 19.602 19.602c-.02 10.816-8.785 19.582-19.602 19.597zm0 0" fill="#d5d5d5"/></symbol><symbol viewBox="0 0 93.169 93.169" id="responsive"><path d="M64.902 0H28.265a6.72 6.72 0 00-6.72 6.72v79.729a6.72 6.72 0 006.72 6.72h36.637a6.72 6.72 0 006.722-6.72V6.72A6.722 6.722 0 0064.902 0zM42.088 3.973h8.991a.587.587 0 010 1.173h-8.991a.586.586 0 010-1.173zm-8.962-1.41a.938.938 0 110 1.876.938.938 0 010-1.876zm-4.25-.562a1.5 1.5 0 110 3 1.5 1.5 0 010-3zM48.93 89.758h-4.691a2.692 2.692 0 110-5.383h4.691a2.692 2.692 0 110 5.383zm19.847-7.51H24.391V10.92h44.386v71.328z" fill="#d5d5d5" data-original="#000000"/></symbol><symbol viewBox="0 0 32 32" id="gulp"><path d="M20.2 25.9l.8-1.4s-1.9.8-5.1.8c-3.2 0-5.1-.8-5.1-.8l.9 1.6.3 5c0 .5 1.7 1 3.9 1s3.9-.4 3.9-1l.4-5.2zm.8-9.4c-1 .1-1.5 1.2-2.1 2.4-.2.4-.8 2.3-1.3 2.1-.4-.2.5-1.8.8-2.7-.3.2-1.5 1.1-1.8.3-.5.4-1.5.6-1.4-.4-.3.5-.8 1.1-1.5.8-.9-.3.5-3.2.9-3.1.4.2-.1.8-.2 1.1-.3.6-.5 1.3-.3 1.4.3.3 1.2-.9 1.2-1 .2-.2.6-1.6 1-1.5.4.2-.9 2.1-.5 2.4.1.1.5 0 .8-.3.2-.2.1-.6.6-1.8.5-1.3 1-2.9 1.4-2.8.4.1.1.9-.1 1.3-.6 1.4-1.7 3.8-1.2 3.6.5-.2.8-.2 1.3-.8.5-.6.5-1.5.8-1.5.3 0 .3.3.2.6.3-.4 1.5-1.2 1.8-.4.3.9-1.7 2.3-1.2 2.2.5-.1 1.3-.6 1.7-1.1l1-8.7s-1 .8-7.2.8-7-.8-7-.8l.8 7.9c.4-1.2 1.5-3.8 3.1-3.7.7 0 1.7 1.5.9 1.5-.4 0-.4-.7-.8-.8-.3-.1-.7.2-1 .5-.5.5-1.7 2.7-1.6 3.7.2 1.4 1.9-.5 2.2-1 .2-.4.3-1.5.8-1.4.4.1 0 1.3-.4 2.3-.4 1.2-.5 2.4-1 2.2-.4-.1.3-1.6.2-1.9-.4.4-1.2 1.4-2.2.9l.5 4.9s1.4 1.1 5.4 1.1 5.5-1.1 5.5-1.1l.6-5.7c-.5.5-2.2 1.4-2.3.4.2-.6 2-1.8 1.6-1.9zM23.1.9l-3.5 3.7-.7 2.5c2.5.2 4.3.5 4.3.9 0 .6-3.2 1-7.2 1s-7.2-.5-7.2-1c0-.6 3.2-1 7.2-1h1.7l.7-3 3.8-4c.1-.1.4 0 .6.2.3.3.4.5.3.7zM18 8.6s-.7 0-.8-.1v-.1c0-.1.1-.1.1-.1l.1.1c0 .1.4.1.7.1.3 0 .7 0 .7-.1h-.1l.1-.1c.1 0 .2.1.2.2s-.2.2-.3.2c-.3-.1-.7-.1-.7-.1z" fill="#d5d5d5" data-original="#000000"/></symbol><symbol viewBox="-55 0 511 512" id="metho"><path xmlns="http://www.w3.org/2000/svg" d="M386.406 0H113.023a15.501 15.501 0 00-10.964 4.543L5.043 101.559A15.495 15.495 0 00.5 112.523v383.97C.5 505.058 7.441 512 16.008 512h370.398c8.563 0 15.508-6.941 15.508-15.508V15.508C401.914 6.94 394.97 0 386.406 0zM97.516 52.945v44.07h-44.07zm273.382 428.04H31.516V128.03h81.507c8.563 0 15.508-6.945 15.508-15.508V31.016h242.367zm0 0" fill="#d5d5d5" data-original="#000000"/><path xmlns="http://www.w3.org/2000/svg" d="M118.352 166.227c-8.563 0-15.508 6.945-15.508 15.507 0 8.567 6.945 15.508 15.508 15.508h165.71c8.563 0 15.508-6.941 15.508-15.508 0-8.562-6.945-15.507-15.507-15.507zm165.711 57.808H118.351c-8.563 0-15.508 6.945-15.508 15.508 0 8.566 6.945 15.508 15.508 15.508h165.71c8.563 0 15.508-6.942 15.508-15.508 0-8.563-6.945-15.508-15.507-15.508zm0 57.813H118.351c-8.563 0-15.508 6.941-15.508 15.504 0 8.566 6.945 15.507 15.508 15.507h165.71c8.563 0 15.508-6.941 15.508-15.507 0-8.563-6.945-15.504-15.507-15.504zm-40.836 57.808H118.352c-8.563 0-15.508 6.942-15.508 15.508 0 8.563 6.945 15.504 15.508 15.504h124.875c8.562 0 15.507-6.941 15.507-15.504 0-8.566-6.945-15.508-15.507-15.508zm0 0" fill="#d5d5d5" data-original="#000000"/></symbol><symbol viewBox="0 0 469.333 469.333" id="sass"><path d="M458.667 181.333c5.896 0 10.667-4.771 10.667-10.667S464.563 160 458.667 160h-32v-42.667h32c5.896 0 10.667-4.771 10.667-10.667S464.563 96 458.667 96h-32V85.333c0-23.531-19.135-42.667-42.667-42.667h-10.667v-32A10.66 10.66 0 00362.667 0 10.66 10.66 0 00352 10.667v32h-42.667v-32C309.333 4.771 304.562 0 298.667 0S288 4.771 288 10.667v32h-42.667v-32C245.333 4.771 240.562 0 234.667 0S224 4.771 224 10.667v32h-42.667v-32C181.333 4.771 176.562 0 170.667 0S160 4.771 160 10.667v32h-42.667v-32C117.333 4.771 112.562 0 106.667 0S96 4.771 96 10.667v32H85.333c-23.531 0-42.667 19.135-42.667 42.667V96h-32C4.771 96 0 100.771 0 106.667s4.771 10.667 10.667 10.667h32V160h-32C4.771 160 0 164.771 0 170.667s4.771 10.667 10.667 10.667h32V224h-32C4.771 224 0 228.771 0 234.667s4.771 10.667 10.667 10.667h32V288h-32C4.771 288 0 292.771 0 298.667s4.771 10.667 10.667 10.667h32V352h-32A10.66 10.66 0 000 362.667a10.66 10.66 0 0010.667 10.667h32V384c0 23.531 19.135 42.667 42.667 42.667H96v32c0 5.896 4.771 10.667 10.667 10.667s10.667-4.771 10.667-10.667v-32H160v32c0 5.896 4.771 10.667 10.667 10.667s10.667-4.771 10.667-10.667v-32H224v32c0 5.896 4.771 10.667 10.667 10.667s10.667-4.771 10.667-10.667v-32H288v32c0 5.896 4.771 10.667 10.667 10.667s10.667-4.771 10.667-10.667v-32H352v32a10.66 10.66 0 0010.667 10.667 10.66 10.66 0 0010.667-10.667v-32H384c23.531 0 42.667-19.135 42.667-42.667v-10.667h32a10.66 10.66 0 0010.667-10.667 10.66 10.66 0 00-10.667-10.667h-32v-42.667h32c5.896 0 10.667-4.771 10.667-10.667S464.563 288 458.667 288h-32v-42.667h32c5.896 0 10.667-4.771 10.667-10.667S464.563 224 458.667 224h-32v-42.667h32zM405.333 384c0 11.76-9.573 21.333-21.333 21.333H85.333C73.573 405.333 64 395.76 64 384V85.333C64 73.573 73.573 64 85.333 64H384c11.76 0 21.333 9.573 21.333 21.333V384z" fill="#d5d5d5" data-original="#000000"/><path d="M373.333 85.333H96A10.66 10.66 0 0085.333 96v277.333A10.66 10.66 0 0096 384h277.333A10.66 10.66 0 00384 373.333V96a10.66 10.66 0 00-10.667-10.667zm-10.666 277.334h-256v-256h256v256z" fill="#d5d5d5" data-original="#000000"/></symbol></svg>