<?xml version="1.0"?>
<svg xmlns="http://www.w3.org/2000/svg" xmlns:xlink="http://www.w3.org/1999/xlink" xmlns:svgjs="http://svgjs.com/svgjs" version="1.1" width="512" height="512" x="0" y="0" viewBox="0 0 511 512" style="enable-background:new 0 0 512 512" xml:space="preserve" class=""><g><path xmlns="http://www.w3.org/2000/svg" d="m386.40625 0h-273.382812c-4.113282 0-8.054688 1.632812-10.964844 4.542969l-97.015625 97.015625c-2.910157 2.90625-4.542969 6.851562-4.542969 10.964844v383.96875c0 8.566406 6.941406 15.507812 15.507812 15.507812h370.398438c8.5625 0 15.507812-6.941406 15.507812-15.507812v-480.984376c0-8.566406-6.945312-15.507812-15.507812-15.507812zm-288.890625 52.945312v44.070313h-44.070313zm273.382813 428.039063h-339.382813v-352.953125h81.507813c8.5625 0 15.507812-6.945312 15.507812-15.507812v-81.507813h242.367188zm0 0" fill="#d5d5d5" data-original="#000000" style="" class=""/><path xmlns="http://www.w3.org/2000/svg" d="m118.351562 166.226562c-8.5625 0-15.507812 6.945313-15.507812 15.507813 0 8.566406 6.945312 15.507813 15.507812 15.507813h165.710938c8.5625 0 15.507812-6.941407 15.507812-15.507813 0-8.5625-6.945312-15.507813-15.507812-15.507813zm0 0" fill="#d5d5d5" data-original="#000000" style="" class=""/><path xmlns="http://www.w3.org/2000/svg" d="m284.0625 224.035156h-165.710938c-8.5625 0-15.507812 6.945313-15.507812 15.507813 0 8.566406 6.945312 15.507812 15.507812 15.507812h165.710938c8.5625 0 15.507812-6.941406 15.507812-15.507812 0-8.5625-6.945312-15.507813-15.507812-15.507813zm0 0" fill="#d5d5d5" data-original="#000000" style="" class=""/><path xmlns="http://www.w3.org/2000/svg" d="m284.0625 281.847656h-165.710938c-8.5625 0-15.507812 6.941406-15.507812 15.503906 0 8.566407 6.945312 15.507813 15.507812 15.507813h165.710938c8.5625 0 15.507812-6.941406 15.507812-15.507813 0-8.5625-6.945312-15.503906-15.507812-15.503906zm0 0" fill="#d5d5d5" data-original="#000000" style="" class=""/><path xmlns="http://www.w3.org/2000/svg" d="m243.226562 339.65625h-124.875c-8.5625 0-15.507812 6.941406-15.507812 15.507812 0 8.5625 6.945312 15.503907 15.507812 15.503907h124.875c8.5625 0 15.507813-6.941407 15.507813-15.503907 0-8.566406-6.945313-15.507812-15.507813-15.507812zm0 0" fill="#d5d5d5" data-original="#000000" style="" class=""/></g></svg>
