<?xml version="1.0" encoding="utf-8"?>
<!-- Generator: Adobe Illustrator 22.1.0, SVG Export Plug-In . SVG Version: 6.00 Build 0)  -->
<svg version="1.1" id="Layer_1" xmlns="http://www.w3.org/2000/svg" xmlns:xlink="http://www.w3.org/1999/xlink" x="0px" y="0px"
	 viewBox="0 0 512 512" style="enable-background:new 0 0 512 512;" xml:space="preserve">
<g>
	<path d="M327.9,374.7l-12.4,21.6l-4,70.5c0,7.8-24.9,14.2-55.5,14.2s-55.5-6.3-55.5-14.2l-5.1-69.8l-13.1-22.3
		C218.6,389.9,293.1,389.4,327.9,374.7z M155.6,152.1l12,110.3c5.2-17.6,18.3-41.3,35.2-48.5c5.5-2.4,11.2-2.4,16.4,0.8
		c4.6,2.6,8.4,8.2,8.9,10.4c1.1,5.7-1.8,8-4,8c-2.6,0-4.7-4-6-6.4c-3.6-6.4-9.1-6.7-14.9-2.5c-6.1,4.4-11.3,11.8-15,18.2
		c-4.5,7.7-8.3,16.3-10.5,24.8c-1.3,4.9-2.5,12.8-0.5,17.5c0.9,1.9,2.2,3.2,4.3,3.2c4.4,0,10.8-5.8,13.9-8.9c4-4,9.1-10.1,11-14.1
		l4.6-13.6c2.3-6,8.7-4.9,8.7,0c0,9-3.3,12-8.8,30.5c-5.1,17.1-6.7,22.7-6.7,22.7c-0.6,2.5-3,6.6-5.5,6.6c-1.1,0-1.8-0.4-2.3-1.1
		c-0.9-1.2-0.8-4.7-0.7-5.5c0.2-2.8,5.5-19.5,6.4-22.1c-1.8,1.9-3.6,3.9-5.6,5.8c-4.7,4.5-12.4,10.4-18.9,10.4c-3,0-4.9-0.8-6.8-2.1
		l6.7,70c1.8,4.4,34.5,15,77.5,15c43.2,0,75.9-10.7,77.5-15l9.6-83.1c-5,4.6-10.8,10.2-17.2,13c-4.7,2-15.3,3.3-15.3-5
		c0-4.6,8-13,12.7-18.9c1.2-1.5,4.1-5.2,4.1-7.1c0-2.5-5.3-1.9-10.3,2.2c-2.8,2.4-5.4,5.5-7.6,8.5c-3.8,5.3-5.8,9.8-7.5,13.6
		c-5.4,12.5-3.6,7.6-8,19.3c-4.4,11.7-3.7,10.4-4.6,12.3c-0.8,1.7-1.9,3.1-3.5,4c-1.7,0.9-4,0.8-5.4-0.3c-0.8-0.5-1.1-1.7-1.1-3.3
		c0-0.8,0.1-1.6,0.3-2.4c1.3-5.4,6.9-15.9,13.2-30.1c1.4-3.3,0.9-2.3,0.7-2c-5.4,5.3-9.6,7.8-12.7,9.2c-5.1,2.3-11.4,2.3-12.7-3.6
		c-0.1-0.4-0.1-0.7-0.2-1.1c-10.4,8.1-21.4,10.3-17.6-7.1c-4,7.2-11.1,13.1-19.7,13.1c-3.6,0-6.2-1.2-7.6-4.5
		c-2-4.8,1.1-13.1,4-20.9c1.5-4,3.5-8.7,6.2-14.2c1.4-3,3.7-4.7,6.7-4c0.5,0.2,1,0.4,1.4,0.6c2.3,1.6,1.4,4,0.3,6.3
		c-3.3,6.6-6.2,11.4-8.2,18.3c-0.8,2.9-1.8,7.9,1.3,7.9c2.1,0,4.1-0.7,6.1-2.1c4-3,7.3-7.5,9.8-11.9c1.8-3.2,3.9-7.3,4.9-10.8
		c0.4-1.5,1-2.9,1.6-4.2c1-2.2,2.3-4.5,4.6-4.5c1.1,0,2.1,0.4,2.8,1.3c1.5,1.9,1.1,4,0.4,6.1c-1.8,4.9-4.1,9.3-6.1,14.7
		c-1.1,3.1-2.4,7-2.4,10.3c0,3,3.3,2.3,6,1.1c2.1-1,4.2-2.5,6-4c1.1-4.3,0.8-3.3,23.2-59.9c1.1-2.9,3.3-4.1,5.4-4.1
		c1.1,0,1.9,0.4,2.8,1c1.5,1.1,1.5,3.6,0.9,5.4c-0.6,1.7-0.5,1.1-4,9.2c-4.6,10.6-7.6,18.3-11.6,28c-1.7,4-6.8,16.6-7.6,19.6
		c-0.5,1.9-1.1,5.1,0.9,5.1c4.7,0,17-11.5,20.3-14.9c0.2-0.3,0.4-0.4,0.8-0.5c0.5-1.7,1.1-3.3,1.5-4.8c1.2-3.3,2.4-7.2,4.7-9.9
		c0.7-0.9,1.5-1.4,2.4-1.4c2.5,0,3.7,1.1,3.7,3.5c0,1-0.6,4.5-1,5.4c1.2-1.3,2.5-2.6,4-4c13.2-12.2,22.6-6,22.6,0.2
		c0,6.5-7.8,15.6-12.1,20.6c-1.4,1.7-4.3,4.7-4.4,5.6c0,1.1,0.8,1.6,1.9,1.6c1.8,0,5.6-3.1,7-4.1c4.4-3.4,10.4-8.7,14.6-12.4
		l13-120.2C329.5,166.9,182.6,167,155.6,152.1L155.6,152.1z M357.5,144.6c0,18.5-203.2,18.5-203.2,0c0-7.7,45.5-14,101.6-14
		c7.9,0,15.6,0.1,23.1,0.4l11.1-42.8L344,31.5c1.2-1.2,5.1-0.2,8.7,3.1c3.6,3.3,5.8,6.9,4.7,8.2l-0.1,0.1L306.9,96l-8.8,35.8
		C333.2,134.1,357.5,138.9,357.5,144.6z M296.5,148.7c0-0.7-0.8-1.3-2.2-1.8l-0.2,0.7c0,1.1-4.4,2.1-9.8,2.1c-5.4,0-9.8-1-9.8-2.1
		c0-0.1,0-0.2,0.1-0.3l0.2-0.6c-1.6,0.5-2.6,1.2-2.6,2c0,1.8,5.4,3.3,12,3.3C291.1,152,296.5,150.5,296.5,148.7L296.5,148.7z" fill="#d5d5d5" data-original="#000000"/>
</g>
</svg>
