<svg xmlns="http://www.w3.org/2000/svg" xmlns:xlink="http://www.w3.org/1999/xlink" xmlns:svgjs="http://svgjs.com/svgjs" version="1.1">
<symbol viewBox="0 0 512 512" id="git">
<path d="m256 0c-140.699219 0-256 116.300781-256 257 0 139.882812 114.25 255 256 255 141.574219 0 256-114.945312 256-255 0-140.699219-115.300781-257-256-257zm45 477.5c-14.398438 3-29.699219 4.5-45 4.5s-30.601562-1.5-45-4.5v-70.199219c0-16.800781 4.5-22.800781 10.5-30.902343 3.054688-3.492188 4.898438-6.625 18.597656-27.296876l-23.097656-3.601562c-59.402344-8.699219-82.800781-39.601562-92.101562-63.601562-12-32.097657-5.699219-72.300782 15.902343-97.796876 3.300781-3.902343 6-10.503906 3.601563-17.402343-4.503906-13.800781-3.902344-35.699219-.902344-44.101563 15.90625 2.273438 32.261719 13.667969 45.902344 21.902344 6.285156 3.667969 9.582031 2.699219 12.597656 3 10.960938-2.28125 28.058594-7.800781 54.300781-7.800781 16.199219 0 33.300781 2.398437 50.101563 7.199219 3.003906-.070313 7.832031 2.484374 16.199218-2.398438 14.257813-8.6875 30.058594-19.691406 45.898438-21.902344 3 8.402344 3.601562 30.300782-.898438 44.101563-2.402343 6.898437.296876 13.5 3.601563 17.402343 21.597656 25.5 27.898437 65.699219 15.898437 97.796876-9.300781 24-32.699218 54.902343-92.101562 63.601562l-23.097656 3.601562c14.160156 21.367188 15.652344 23.929688 18.601562 27.296876 5.996094 8.101562 10.496094 14.101562 10.496094 30.902343zm30-8.699219v-61.5c0-17.101562-3.601562-28.5-8.402344-36.902343 45.601563-12.296876 78.003906-39.300782 92.402344-78 15.300781-40.796876 8.402344-89.398438-17.101562-123 4.503906-20.097657 4.503906-52.199219-6.296876-67.199219-4.800781-6.597657-11.402343-10.199219-19.800781-10.199219-.300781 0-.300781 0-.300781 0-23.261719 1.257812-41.570312 12.972656-61.199219 24.898438-18-4.800782-36.300781-7.199219-54.601562-7.199219-18.597657 0-37.199219 2.699219-53.695313 7.199219-20.664062-12.460938-38.796875-23.671876-62.703125-24.898438-7.5 0-14.101562 3.601562-18.902343 10.199219-10.796876 15-10.796876 47.101562-6.296876 67.199219-25.503906 33.601562-32.402343 82.5-17.101562 123 14.398438 38.699218 46.800781 65.703124 92.402344 78-3.722656 6.511718-6.667969 14.914062-7.828125 26.285156-9.210938 3.175781-17.199219 4.210937-24.628907 2.027344-7.835937-2.316407-13.941406-7.546876-19.246093-16.46875-11.914063-20.015626-32.207031-36.355469-55.3125-34.230469l2.636719 29.882812c10.699218-.980469 21.347656 10.339844 26.878906 19.671875 9.125 15.367188 21.417968 25.445313 36.546875 29.914063 11.230469 3.308593 21.496093 3.230469 32.550781.871093v40.449219c-87.300781-30.601562-151-114-151-211.800781 0-124.199219 101.800781-227 226-227s226 102.800781 226 227c0 97.800781-63.699219 181.199219-151 211.800781zm0 0" fill="#d5d5d5"/>
</symbol>
<symbol viewBox="-25 0 445 445.6" id="react">
<path d="m385.082031 102.800781c-16.601562-26-52.300781-36.800781-100.402343-30.601562-1.699219.199219-3.5.5-5.199219.699219-.699219-1.597657-1.398438-3.199219-2.199219-4.796876-20.699219-43.902343-49-68.101562-79.800781-68.101562s-59.199219 24.199219-79.800781 68.101562c-.699219 1.597657-1.5 3.199219-2.199219 4.796876-1.800781-.296876-3.5-.5-5.199219-.699219-48.199219-6.300781-83.800781 4.601562-100.402344 30.601562-16.597656 26-11.5 62.898438 14.300782 103.898438 3.402343 5.402343 7.101562 10.800781 11.101562 16.101562-4 5.398438-7.699219 10.699219-11.101562 16.097657-25.800782 41-30.898438 78-14.300782 103.902343 13.5 21.199219 39.703125 32.300781 75 32.300781 8.460938-.046874 16.910156-.613281 25.300782-1.703124 1.699218-.199219 3.5-.5 5.199218-.699219.703125 1.601562 1.402344 3.199219 2.203125 4.800781 20.699219 43.898438 49 68.101562 79.796875 68.101562 30.800782 0 59.203125-24.203124 79.800782-68.101562.699218-1.601562 1.5-3.199219 2.199218-4.800781 1.800782.300781 3.5.5 5.203125.699219 8.382813 1.136718 16.835938 1.703124 25.296875 1.703124 35.300782 0 61.5-11.101562 75-32.300781 16.601563-26 11.5-62.902343-14.296875-103.902343-3.402343-5.398438-7.101562-10.796876-11.101562-16.097657 4-5.402343 7.699219-10.699219 11.101562-16.101562 26.097657-41.097657 31.199219-78 14.5-103.898438zm-249.300781-26.199219c16.898438-36 39.398438-56.601562 61.699219-56.601562s44.800781 20.601562 61.699219 56.601562c.011718.074219.046874.144532.101562.199219-21.242188 5.109375-41.960938 12.171875-61.902344 21.097657-19.917968-8.96875-40.644531-16.035157-61.898437-21.097657.199219 0 .199219-.101562.300781-.199219zm151.800781 146.199219c.003907 16-.863281 31.992188-2.601562 47.898438-12.464844 10.058593-25.484375 19.40625-39 28-15.597657 10.015625-31.832031 19.003906-48.601563 26.902343-16.734375-7.960937-32.96875-16.945312-48.597656-26.902343-13.5-8.617188-26.519531-17.964844-39-28-3.46875-31.839844-3.46875-63.960938 0-95.800781 26.953125-21.660157 56.355469-40.085938 87.597656-54.898438 16.738282 7.957031 32.96875 16.941406 48.601563 26.898438 13.5 8.617187 26.519531 17.964843 39 28 1.738281 15.910156 2.605469 31.898437 2.601562 47.902343zm19.097657-29.101562c9.792968 9.121093 19.011718 18.839843 27.601562 29.101562-8.589844 10.257813-17.808594 19.976563-27.601562 29.097657.601562-9.597657.902343-19.296876.902343-29.097657s-.300781-19.5-.902343-29.101562zm-25.800782 105.402343c-3.15625 17.3125-7.738281 34.335938-13.699218 50.898438-15.53125-3.507812-30.773438-8.1875-45.597657-14 11.796875-6.199219 23.597657-13 35.296875-20.398438 8.203125-5.300781 16.203125-10.800781 24-16.5zm-107.5 36.898438c-14.796875 5.886719-30.046875 10.570312-45.597656 14-5.960938-16.5625-10.542969-33.585938-13.699219-50.898438 7.699219 5.699219 15.699219 11.199219 24 16.398438 11.699219 7.5 23.5 14.300781 35.296875 20.5zm-85.097656-84.101562c-9.792969-9.121094-19.007812-18.839844-27.601562-29.097657 8.59375-10.261719 17.808593-19.980469 27.601562-29.101562-.601562 9.601562-.902344 19.300781-.902344 29.101562s.300782 19.5.902344 29.097657zm25.800781-105.398438c3.15625-17.316406 7.738281-34.339844 13.699219-50.898438 15.53125 3.503907 30.777344 8.183594 45.597656 14-11.796875 6.199219-23.597656 13-35.296875 20.398438-8.203125 5.300781-16.203125 10.800781-24 16.5zm142.699219-16.5c-11.601562-7.398438-23.402344-14.300781-35.300781-20.398438 14.796875-5.886718 30.046875-10.570312 45.601562-14 5.957031 16.558594 10.539063 33.582032 13.699219 50.898438-7.699219-5.699219-15.699219-11.199219-24-16.5zm-215.699219 66c-21.203125-33.601562-26.402343-63.699219-14.402343-82.5 9.601562-15 30.402343-23.101562 58.5-23.101562 7.523437.03125 15.039062.535156 22.5 1.5h.199218c-8.089844 23.523437-13.71875 47.820312-16.796875 72.5-15.410156 12.855468-29.757812 26.9375-42.902343 42.101562-2.5-3.398438-4.898438-6.898438-7.097657-10.5zm66.5 157.601562c-7.460937.96875-14.976562 1.46875-22.5 1.5-28.101562 0-48.902343-8-58.5-23.101562-12-18.800781-6.800781-48.898438 14.398438-82.5 2.199219-3.5 4.601562-7.101562 7.101562-10.601562 13.140625 15.167968 27.488281 29.246093 42.898438 42.101562 3.082031 24.683594 8.710937 48.980469 16.800781 72.5 0 .101562-.101562.101562-.199219.101562zm151.597657 15.398438c-16.898438 36-39.398438 56.601562-61.699219 56.601562s-44.800781-20.601562-61.699219-56.601562c-.011719-.074219-.046875-.144531-.101562-.199219 21.242187-5.109375 41.960937-12.171875 61.902343-21.101562 19.917969 8.972656 40.644531 16.039062 61.898438 21.101562-.199219 0-.199219.097657-.300781.199219zm94.699218-119.398438c21.203125 33.597657 26.402344 63.699219 14.402344 82.5-12 18.796876-41.5 26.699219-80.902344 21.5h-.199218c8.089843-23.523437 13.722656-47.820312 16.800781-72.5 15.410156-12.855468 29.757812-26.9375 42.898437-42.101562 2.402344 3.5 4.800782 7 7 10.601562zm-50-85.101562c-3.078125-24.683594-8.707031-48.980469-16.796875-72.5h.199219c39.398438-5.101562 68.898438 2.699219 80.898438 21.5s6.800781 48.898438-14.398438 82.5c-2.199219 3.5-4.601562 7.101562-7.101562 10.601562-13.082032-15.191406-27.398438-29.273437-42.800782-42.101562zm0 0" fill="#d5d5d5"/><path d="m197.480469 183.199219c-21.871094 0-39.601563 17.730469-39.601563 39.601562 0 21.871094 17.730469 39.597657 39.601563 39.597657 21.871093 0 39.601562-17.726563 39.601562-39.597657-.015625-21.867187-17.738281-39.585937-39.601562-39.601562zm0 59.199219c-10.824219 0-19.601563-8.773438-19.601563-19.597657s8.777344-19.601562 19.601563-19.601562 19.601562 8.777343 19.601562 19.601562c-.019531 10.816407-8.785156 19.582031-19.601562 19.597657zm0 0" fill="#d5d5d5"/>
</symbol>
<symbol viewBox="0 0 93.169 93.169" id="responsive">
<path d="M64.902,0H28.265c-3.711,0-6.72,3.009-6.72,6.72v79.729c0,3.712,3.008,6.72,6.72,6.72h36.637   c3.713,0,6.722-3.008,6.722-6.72V6.72C71.623,3.009,68.615,0,64.902,0z M42.088,3.973h8.991c0.323,0,0.586,0.263,0.586,0.587   c0,0.323-0.263,0.586-0.586,0.586h-8.991c-0.324,0-0.586-0.263-0.586-0.586C41.502,4.236,41.765,3.973,42.088,3.973z M33.126,2.563   c0.518,0,0.938,0.42,0.938,0.938c0,0.518-0.419,0.938-0.938,0.938s-0.938-0.42-0.938-0.938C32.188,2.983,32.608,2.563,33.126,2.563   z M28.876,2.001c0.829,0,1.5,0.672,1.5,1.5c0,0.828-0.671,1.5-1.5,1.5s-1.5-0.672-1.5-1.5C27.376,2.673,28.047,2.001,28.876,2.001z    M48.93,89.758h-4.691c-1.488,0-2.693-1.205-2.693-2.691c0-1.487,1.205-2.692,2.693-2.692h4.691c1.488,0,2.693,1.205,2.693,2.692   C51.623,88.553,50.418,89.758,48.93,89.758z M68.777,82.248H24.391V10.92h44.386V82.248z" fill="#d5d5d5" data-original="#000000" style=""/>
</symbol>
<symbol viewBox="0 0 32 32" id="gulp">
<path d="M20.2,25.9l0.8-1.4c0,0-1.9,0.8-5.1,0.8c-3.2,0-5.1-0.8-5.1-0.8l0.9,1.6l0.3,5c0,0.5,1.7,1,3.9,1c2.2,0,3.9-0.4,3.9-1
	L20.2,25.9L20.2,25.9z M21,16.5c-1,0.1-1.5,1.2-2.1,2.4c-0.2,0.4-0.8,2.3-1.3,2.1c-0.4-0.2,0.5-1.8,0.8-2.7
	c-0.3,0.2-1.5,1.1-1.8,0.3c-0.5,0.4-1.5,0.6-1.4-0.4c-0.3,0.5-0.8,1.1-1.5,0.8c-0.9-0.3,0.5-3.2,0.9-3.1c0.4,0.2-0.1,0.8-0.2,1.1
	c-0.3,0.6-0.5,1.3-0.3,1.4c0.3,0.3,1.2-0.9,1.2-1c0.2-0.2,0.6-1.6,1-1.5c0.4,0.2-0.9,2.1-0.5,2.4c0.1,0.1,0.5,0,0.8-0.3
	c0.2-0.2,0.1-0.6,0.6-1.8c0.5-1.3,1-2.9,1.4-2.8c0.4,0.1,0.1,0.9-0.1,1.3c-0.6,1.4-1.7,3.8-1.2,3.6c0.5-0.2,0.8-0.2,1.3-0.8
	c0.5-0.6,0.5-1.5,0.8-1.5c0.3,0,0.3,0.3,0.2,0.6c0.3-0.4,1.5-1.2,1.8-0.4c0.3,0.9-1.7,2.3-1.2,2.2c0.5-0.1,1.3-0.6,1.7-1.1l1-8.7
	c0,0-1,0.8-7.2,0.8c-6.2,0-7-0.8-7-0.8l0.8,7.9c0.4-1.2,1.5-3.8,3.1-3.7c0.7,0,1.7,1.5,0.9,1.5c-0.4,0-0.4-0.7-0.8-0.8
	c-0.3-0.1-0.7,0.2-1,0.5c-0.5,0.5-1.7,2.7-1.6,3.7c0.2,1.4,1.9-0.5,2.2-1c0.2-0.4,0.3-1.5,0.8-1.4c0.4,0.1,0,1.3-0.4,2.3
	c-0.4,1.2-0.5,2.4-1,2.2c-0.4-0.1,0.3-1.6,0.2-1.9c-0.4,0.4-1.2,1.4-2.2,0.9l0.5,4.9c0,0,1.4,1.1,5.4,1.1s5.5-1.1,5.5-1.1l0.6-5.7
	c-0.5,0.5-2.2,1.4-2.3,0.4C19.6,17.8,21.4,16.6,21,16.5L21,16.5z M23.1,0.9l-3.5,3.7l-0.7,2.5c2.5,0.2,4.3,0.5,4.3,0.9
	c0,0.6-3.2,1-7.2,1s-7.2-0.5-7.2-1c0-0.6,3.2-1,7.2-1c0.6,0,1.1,0,1.7,0l0.7-3l3.8-4c0.1-0.1,0.4,0,0.6,0.2
	C23.1,0.5,23.2,0.7,23.1,0.9L23.1,0.9L23.1,0.9z M18,8.6c0,0-0.7,0-0.8-0.1c0,0,0-0.1,0-0.1c0-0.1,0.1-0.1,0.1-0.1l0.1,0.1
	c0,0,0,0,0,0c0,0.1,0.4,0.1,0.7,0.1c0.3,0,0.7,0,0.7-0.1c0,0,0,0-0.1,0l0.1-0.1c0.1,0,0.2,0.1,0.2,0.2c0,0.1-0.2,0.2-0.3,0.2
	C18.4,8.6,18,8.6,18,8.6L18,8.6z" fill="#d5d5d5" data-original="#000000"/>
</symbol>
<symbol viewBox="-55 0 511 512" id="metho">
<g><path xmlns="http://www.w3.org/2000/svg" d="m386.40625 0h-273.382812c-4.113282 0-8.054688 1.632812-10.964844 4.542969l-97.015625 97.015625c-2.910157 2.90625-4.542969 6.851562-4.542969 10.964844v383.96875c0 8.566406 6.941406 15.507812 15.507812 15.507812h370.398438c8.5625 0 15.507812-6.941406 15.507812-15.507812v-480.984376c0-8.566406-6.945312-15.507812-15.507812-15.507812zm-288.890625 52.945312v44.070313h-44.070313zm273.382813 428.039063h-339.382813v-352.953125h81.507813c8.5625 0 15.507812-6.945312 15.507812-15.507812v-81.507813h242.367188zm0 0" fill="#d5d5d5" data-original="#000000" style="" class=""/><path xmlns="http://www.w3.org/2000/svg" d="m118.351562 166.226562c-8.5625 0-15.507812 6.945313-15.507812 15.507813 0 8.566406 6.945312 15.507813 15.507812 15.507813h165.710938c8.5625 0 15.507812-6.941407 15.507812-15.507813 0-8.5625-6.945312-15.507813-15.507812-15.507813zm0 0" fill="#d5d5d5" data-original="#000000" style="" class=""/><path xmlns="http://www.w3.org/2000/svg" d="m284.0625 224.035156h-165.710938c-8.5625 0-15.507812 6.945313-15.507812 15.507813 0 8.566406 6.945312 15.507812 15.507812 15.507812h165.710938c8.5625 0 15.507812-6.941406 15.507812-15.507812 0-8.5625-6.945312-15.507813-15.507812-15.507813zm0 0" fill="#d5d5d5" data-original="#000000" style="" class=""/><path xmlns="http://www.w3.org/2000/svg" d="m284.0625 281.847656h-165.710938c-8.5625 0-15.507812 6.941406-15.507812 15.503906 0 8.566407 6.945312 15.507813 15.507812 15.507813h165.710938c8.5625 0 15.507812-6.941406 15.507812-15.507813 0-8.5625-6.945312-15.503906-15.507812-15.503906zm0 0" fill="#d5d5d5" data-original="#000000" style="" class=""/><path xmlns="http://www.w3.org/2000/svg" d="m243.226562 339.65625h-124.875c-8.5625 0-15.507812 6.941406-15.507812 15.507812 0 8.5625 6.945312 15.503907 15.507812 15.503907h124.875c8.5625 0 15.507813-6.941407 15.507813-15.503907 0-8.566406-6.945313-15.507812-15.507813-15.507812zm0 0" fill="#d5d5d5" data-original="#000000" style="" class=""/></g>
</symbol>
<symbol viewBox="0 0 469.333 469.333" id="sass">
	<g>
		<g>
			<path d="M458.667,181.333c5.896,0,10.667-4.771,10.667-10.667S464.563,160,458.667,160h-32v-42.667h32     c5.896,0,10.667-4.771,10.667-10.667S464.563,96,458.667,96h-32V85.333c0-23.531-19.135-42.667-42.667-42.667h-10.667v-32     C373.333,4.771,368.563,0,362.667,0C356.771,0,352,4.771,352,10.667v32h-42.667v-32C309.333,4.771,304.562,0,298.667,0     S288,4.771,288,10.667v32h-42.667v-32C245.333,4.771,240.562,0,234.667,0S224,4.771,224,10.667v32h-42.667v-32     C181.333,4.771,176.562,0,170.667,0S160,4.771,160,10.667v32h-42.667v-32C117.333,4.771,112.562,0,106.667,0S96,4.771,96,10.667     v32H85.333c-23.531,0-42.667,19.135-42.667,42.667V96h-32C4.771,96,0,100.771,0,106.667s4.771,10.667,10.667,10.667h32V160h-32     C4.771,160,0,164.771,0,170.667s4.771,10.667,10.667,10.667h32V224h-32C4.771,224,0,228.771,0,234.667     s4.771,10.667,10.667,10.667h32V288h-32C4.771,288,0,292.771,0,298.667s4.771,10.667,10.667,10.667h32V352h-32     C4.771,352,0,356.771,0,362.667c0,5.896,4.771,10.667,10.667,10.667h32V384c0,23.531,19.135,42.667,42.667,42.667H96v32     c0,5.896,4.771,10.667,10.667,10.667s10.667-4.771,10.667-10.667v-32H160v32c0,5.896,4.771,10.667,10.667,10.667     s10.667-4.771,10.667-10.667v-32H224v32c0,5.896,4.771,10.667,10.667,10.667s10.667-4.771,10.667-10.667v-32H288v32     c0,5.896,4.771,10.667,10.667,10.667s10.667-4.771,10.667-10.667v-32H352v32c0,5.896,4.771,10.667,10.667,10.667     c5.896,0,10.667-4.771,10.667-10.667v-32H384c23.531,0,42.667-19.135,42.667-42.667v-10.667h32     c5.896,0,10.667-4.771,10.667-10.667c0-5.896-4.771-10.667-10.667-10.667h-32v-42.667h32c5.896,0,10.667-4.771,10.667-10.667     S464.563,288,458.667,288h-32v-42.667h32c5.896,0,10.667-4.771,10.667-10.667S464.563,224,458.667,224h-32v-42.667H458.667z      M405.333,384c0,11.76-9.573,21.333-21.333,21.333H85.333C73.573,405.333,64,395.76,64,384V85.333C64,73.573,73.573,64,85.333,64     H384c11.76,0,21.333,9.573,21.333,21.333V384z" fill="#d5d5d5" data-original="#000000" style="" class=""/>
			<path d="M373.333,85.333H96c-5.896,0-10.667,4.771-10.667,10.667v277.333C85.333,379.229,90.104,384,96,384h277.333     c5.896,0,10.667-4.771,10.667-10.667V96C384,90.104,379.229,85.333,373.333,85.333z M362.667,362.667h-256v-256h256V362.667z" fill="#d5d5d5" data-original="#000000" style="" class=""/>
		</g>
	</g>
</symbol>
</svg>